<?xml version="1.0" encoding="UTF-8"?>
<svg width="700pt" height="700pt" version="1.1" viewBox="0 0 700 700" xmlns="http://www.w3.org/2000/svg" xmlns:xlink="http://www.w3.org/1999/xlink">
 <defs>
  <symbol id="v" overflow="visible">
   <path d="m18.766-1.125c-0.96875 0.5-1.9805 0.875-3.0312 1.125-1.043 0.25781-2.1367 0.39062-3.2812 0.39062-3.3984 0-6.0898-0.94531-8.0781-2.8438-1.9922-1.9062-2.9844-4.4844-2.9844-7.7344 0-3.2578 0.99219-5.8359 2.9844-7.7344 1.9883-1.9062 4.6797-2.8594 8.0781-2.8594 1.1445 0 2.2383 0.13281 3.2812 0.39062 1.0508 0.25 2.0625 0.625 3.0312 1.125v4.2188c-0.98047-0.65625-1.9453-1.1406-2.8906-1.4531-0.94922-0.3125-1.9492-0.46875-3-0.46875-1.875 0-3.3516 0.60547-4.4219 1.8125-1.0742 1.1992-1.6094 2.8555-1.6094 4.9688 0 2.1055 0.53516 3.7617 1.6094 4.9688 1.0703 1.1992 2.5469 1.7969 4.4219 1.7969 1.0508 0 2.0508-0.14844 3-0.45312 0.94531-0.3125 1.9102-0.80078 2.8906-1.4688z"/>
  </symbol>
  <symbol id="b" overflow="visible">
   <path d="m13.734-11.141c-0.4375-0.19531-0.87109-0.34375-1.2969-0.4375-0.41797-0.10156-0.83984-0.15625-1.2656-0.15625-1.2617 0-2.2305 0.40625-2.9062 1.2188-0.67969 0.80469-1.0156 1.9531-1.0156 3.4531v7.0625h-4.8906v-15.312h4.8906v2.5156c0.625-1 1.3438-1.7266 2.1562-2.1875 0.82031-0.46875 1.8008-0.70312 2.9375-0.70312 0.16406 0 0.34375 0.011719 0.53125 0.03125 0.19531 0.011719 0.47656 0.039062 0.84375 0.078125z"/>
  </symbol>
  <symbol id="a" overflow="visible">
   <path d="m17.641-7.7031v1.4062h-11.453c0.125 1.1484 0.53906 2.0078 1.25 2.5781 0.70703 0.57422 1.7031 0.85938 2.9844 0.85938 1.0312 0 2.082-0.14844 3.1562-0.45312 1.082-0.3125 2.1914-0.77344 3.3281-1.3906v3.7656c-1.1562 0.4375-2.3125 0.76562-3.4688 0.98438-1.1562 0.22656-2.3125 0.34375-3.4688 0.34375-2.7734 0-4.9297-0.70312-6.4688-2.1094-1.5312-1.4062-2.2969-3.3789-2.2969-5.9219 0-2.5 0.75391-4.4609 2.2656-5.8906 1.5078-1.4375 3.582-2.1562 6.2188-2.1562 2.4062 0 4.332 0.73047 5.7812 2.1875 1.4453 1.4492 2.1719 3.3828 2.1719 5.7969zm-5.0312-1.625c0-0.92578-0.27344-1.6719-0.8125-2.2344-0.54297-0.57031-1.25-0.85938-2.125-0.85938-0.94922 0-1.7188 0.26562-2.3125 0.79688s-0.96484 1.2969-1.1094 2.2969z"/>
  </symbol>
  <symbol id="e" overflow="visible">
   <path d="m9.2188-6.8906c-1.0234 0-1.793 0.17188-2.3125 0.51562-0.51172 0.34375-0.76562 0.85547-0.76562 1.5312 0 0.625 0.20703 1.1172 0.625 1.4688 0.41406 0.34375 0.98828 0.51562 1.7188 0.51562 0.92578 0 1.7031-0.32812 2.3281-0.98438 0.63281-0.66406 0.95312-1.4922 0.95312-2.4844v-0.5625zm7.4688-1.8438v8.7344h-4.9219v-2.2656c-0.65625 0.92969-1.3984 1.6055-2.2188 2.0312-0.82422 0.41406-1.8242 0.625-3 0.625-1.5859 0-2.8711-0.45703-3.8594-1.375-0.99219-0.92578-1.4844-2.1289-1.4844-3.6094 0-1.7891 0.61328-3.1016 1.8438-3.9375 1.2383-0.84375 3.1797-1.2656 5.8281-1.2656h2.8906v-0.39062c0-0.76953-0.30859-1.332-0.92188-1.6875-0.61719-0.36328-1.5703-0.54688-2.8594-0.54688-1.0547 0-2.0312 0.10547-2.9375 0.3125-0.89844 0.21094-1.7305 0.52344-2.5 0.9375v-3.7344c1.0391-0.25 2.0859-0.44141 3.1406-0.57812 1.0625-0.13281 2.125-0.20312 3.1875-0.20312 2.7578 0 4.75 0.54688 5.9688 1.6406 1.2266 1.0859 1.8438 2.8555 1.8438 5.3125z"/>
  </symbol>
  <symbol id="c" overflow="visible">
   <path d="m7.7031-19.656v4.3438h5.0469v3.5h-5.0469v6.5c0 0.71094 0.14062 1.1875 0.42188 1.4375s0.83594 0.375 1.6719 0.375h2.5156v3.5h-4.1875c-1.9375 0-3.3125-0.39844-4.125-1.2031-0.80469-0.8125-1.2031-2.1797-1.2031-4.1094v-6.5h-2.4219v-3.5h2.4219v-4.3438z"/>
  </symbol>
  <symbol id="l" overflow="visible">
   <path d="m12.766-13.078v-8.2031h4.9219v21.281h-4.9219v-2.2188c-0.66797 0.90625-1.4062 1.5703-2.2188 1.9844s-1.7578 0.625-2.8281 0.625c-1.8867 0-3.4336-0.75-4.6406-2.25-1.2109-1.5-1.8125-3.4258-1.8125-5.7812 0-2.3633 0.60156-4.2969 1.8125-5.7969 1.207-1.5 2.7539-2.25 4.6406-2.25 1.0625 0 2 0.21484 2.8125 0.64062 0.82031 0.42969 1.5664 1.0859 2.2344 1.9688zm-3.2188 9.9219c1.0391 0 1.8359-0.37891 2.3906-1.1406 0.55078-0.76953 0.82812-1.8828 0.82812-3.3438 0-1.457-0.27734-2.5664-0.82812-3.3281-0.55469-0.76953-1.3516-1.1562-2.3906-1.1562-1.043 0-1.8398 0.38672-2.3906 1.1562-0.55469 0.76172-0.82812 1.8711-0.82812 3.3281 0 1.4609 0.27344 2.5742 0.82812 3.3438 0.55078 0.76172 1.3477 1.1406 2.3906 1.1406z"/>
  </symbol>
  <symbol id="k" overflow="visible">
   <path d="m10.5-3.1562c1.0508 0 1.8516-0.37891 2.4062-1.1406 0.55078-0.76953 0.82812-1.8828 0.82812-3.3438 0-1.457-0.27734-2.5664-0.82812-3.3281-0.55469-0.76953-1.3555-1.1562-2.4062-1.1562-1.0547 0-1.8594 0.38672-2.4219 1.1562-0.55469 0.77344-0.82812 1.8828-0.82812 3.3281 0 1.4492 0.27344 2.5586 0.82812 3.3281 0.5625 0.77344 1.3672 1.1562 2.4219 1.1562zm-3.25-9.9219c0.67578-0.88281 1.4219-1.5391 2.2344-1.9688 0.82031-0.42578 1.7656-0.64062 2.8281-0.64062 1.8945 0 3.4453 0.75 4.6562 2.25 1.207 1.5 1.8125 3.4336 1.8125 5.7969 0 2.3555-0.60547 4.2812-1.8125 5.7812-1.2109 1.5-2.7617 2.25-4.6562 2.25-1.0625 0-2.0078-0.21094-2.8281-0.625-0.8125-0.42578-1.5586-1.0859-2.2344-1.9844v2.2188h-4.8906v-21.281h4.8906z"/>
  </symbol>
  <symbol id="j" overflow="visible">
   <path d="m0.34375-15.312h4.8906l4.125 10.391 3.5-10.391h4.8906l-6.4375 16.766c-0.64844 1.6953-1.4023 2.8828-2.2656 3.5625-0.86719 0.6875-2 1.0312-3.4062 1.0312h-2.8438v-3.2188h1.5312c0.83203 0 1.4375-0.13672 1.8125-0.40625 0.38281-0.26172 0.67969-0.73047 0.89062-1.4062l0.14062-0.42188z"/>
  </symbol>
  <symbol id="i" overflow="visible">
   <path d="m7.25-2.2188v8.0469h-4.8906v-21.141h4.8906v2.2344c0.67578-0.88281 1.4219-1.5391 2.2344-1.9688 0.82031-0.42578 1.7656-0.64062 2.8281-0.64062 1.8945 0 3.4453 0.75 4.6562 2.25 1.207 1.5 1.8125 3.4336 1.8125 5.7969 0 2.3555-0.60547 4.2812-1.8125 5.7812-1.2109 1.5-2.7617 2.25-4.6562 2.25-1.0625 0-2.0078-0.21094-2.8281-0.625-0.8125-0.42578-1.5586-1.0859-2.2344-1.9844zm3.25-9.9062c-1.0547 0-1.8594 0.38672-2.4219 1.1562-0.55469 0.77344-0.82812 1.8828-0.82812 3.3281 0 1.4492 0.27344 2.5586 0.82812 3.3281 0.5625 0.77344 1.3672 1.1562 2.4219 1.1562 1.0508 0 1.8516-0.37891 2.4062-1.1406 0.55078-0.76953 0.82812-1.8828 0.82812-3.3438 0-1.457-0.27734-2.5664-0.82812-3.3281-0.55469-0.76953-1.3555-1.1562-2.4062-1.1562z"/>
  </symbol>
  <symbol id="u" overflow="visible">
   <path d="m2.3594-21.281h4.8906v11.594l5.625-5.625h5.6875l-7.4688 7.0312 8.0625 8.2812h-5.9375l-5.9688-6.3906v6.3906h-4.8906z"/>
  </symbol>
  <symbol id="h" overflow="visible">
   <path d="m2.3594-15.312h4.8906v15.031c0 2.0508-0.49609 3.6172-1.4844 4.7031-0.98047 1.082-2.4062 1.625-4.2812 1.625h-2.4219v-3.2188h0.85938c0.92578 0 1.5625-0.21094 1.9062-0.625 0.35156-0.41797 0.53125-1.2461 0.53125-2.4844zm0-5.9688h4.8906v4h-4.8906z"/>
  </symbol>
  <symbol id="t" overflow="visible">
   <path d="m2.3594-15.312h4.8906v15.312h-4.8906zm0-5.9688h4.8906v4h-4.8906z"/>
  </symbol>
  <symbol id="s" overflow="visible">
   <path d="m14.312-14.828v3.7188c-1.043-0.4375-2.0547-0.76562-3.0312-0.98438-0.98047-0.21875-1.9023-0.32812-2.7656-0.32812-0.92969 0-1.6211 0.11719-2.0781 0.34375-0.44922 0.23047-0.67188 0.58984-0.67188 1.0781 0 0.38672 0.17188 0.68359 0.51562 0.89062 0.34375 0.21094 0.95703 0.36719 1.8438 0.46875l0.85938 0.125c2.5078 0.32422 4.1953 0.85156 5.0625 1.5781 0.86328 0.73047 1.2969 1.8711 1.2969 3.4219 0 1.6367-0.60547 2.8672-1.8125 3.6875-1.1992 0.8125-2.9922 1.2188-5.375 1.2188-1.0234 0-2.0742-0.078125-3.1562-0.23438-1.0742-0.15625-2.1797-0.39453-3.3125-0.71875v-3.7188c0.96875 0.48047 1.9609 0.83984 2.9844 1.0781 1.0312 0.23047 2.0781 0.34375 3.1406 0.34375 0.95703 0 1.6758-0.12891 2.1562-0.39062 0.47656-0.26953 0.71875-0.66406 0.71875-1.1875 0-0.4375-0.16797-0.75781-0.5-0.96875-0.33594-0.21875-0.99609-0.38281-1.9844-0.5l-0.85938-0.10938c-2.1797-0.26953-3.7031-0.77344-4.5781-1.5156-0.875-0.73828-1.3125-1.8594-1.3125-3.3594 0-1.625 0.55078-2.8281 1.6562-3.6094 1.1133-0.78906 2.8203-1.1875 5.125-1.1875 0.89453 0 1.8359 0.074219 2.8281 0.21875 1 0.13672 2.082 0.35156 3.25 0.64062z"/>
  </symbol>
  <symbol id="g" overflow="visible">
   <path d="m2.1875-5.9688v-9.3438h4.9219v1.5312c0 0.83594-0.007813 1.875-0.015625 3.125-0.011719 1.25-0.015625 2.0859-0.015625 2.5 0 1.2422 0.03125 2.1328 0.09375 2.6719 0.070313 0.54297 0.17969 0.93359 0.32812 1.1719 0.20703 0.32422 0.47266 0.57422 0.79688 0.75 0.32031 0.16797 0.69141 0.25 1.1094 0.25 1.0195 0 1.8203-0.39062 2.4062-1.1719 0.58203-0.78125 0.875-1.8672 0.875-3.2656v-7.5625h4.8906v15.312h-4.8906v-2.2188c-0.74219 0.89844-1.5234 1.5586-2.3438 1.9844-0.82422 0.41406-1.7344 0.625-2.7344 0.625-1.7617 0-3.1055-0.53906-4.0312-1.625-0.92969-1.082-1.3906-2.6602-1.3906-4.7344z"/>
  </symbol>
  <symbol id="f" overflow="visible">
   <path d="m17.75-9.3281v9.3281h-4.9219v-7.1406c0-1.3203-0.03125-2.2344-0.09375-2.7344s-0.16797-0.86719-0.3125-1.1094c-0.1875-0.3125-0.44922-0.55469-0.78125-0.73438-0.32422-0.17578-0.69531-0.26562-1.1094-0.26562-1.0234 0-1.8242 0.39844-2.4062 1.1875-0.58594 0.78125-0.875 1.8711-0.875 3.2656v7.5312h-4.8906v-15.312h4.8906v2.2344c0.73828-0.88281 1.5195-1.5391 2.3438-1.9688 0.83203-0.42578 1.75-0.64062 2.75-0.64062 1.7695 0 3.1133 0.54688 4.0312 1.6406 0.91406 1.0859 1.375 2.6562 1.375 4.7188z"/>
  </symbol>
  <symbol id="r" overflow="visible">
   <path d="m12.422-21.281v3.2188h-2.7031c-0.6875 0-1.1719 0.125-1.4531 0.375-0.27344 0.25-0.40625 0.6875-0.40625 1.3125v1.0625h4.1875v3.5h-4.1875v11.812h-4.8906v-11.812h-2.4375v-3.5h2.4375v-1.0625c0-1.6641 0.46094-2.8984 1.3906-3.7031 0.92578-0.80078 2.3672-1.2031 4.3281-1.2031z"/>
  </symbol>
  <symbol id="d" overflow="visible">
   <path d="m9.6406-12.188c-1.0859 0-1.9141 0.39062-2.4844 1.1719-0.57422 0.78125-0.85938 1.9062-0.85938 3.375s0.28516 2.5938 0.85938 3.375c0.57031 0.77344 1.3984 1.1562 2.4844 1.1562 1.0625 0 1.875-0.38281 2.4375-1.1562 0.57031-0.78125 0.85938-1.9062 0.85938-3.375s-0.28906-2.5938-0.85938-3.375c-0.5625-0.78125-1.375-1.1719-2.4375-1.1719zm0-3.5c2.6328 0 4.6914 0.71484 6.1719 2.1406 1.4766 1.418 2.2188 3.3867 2.2188 5.9062 0 2.5117-0.74219 4.4805-2.2188 5.9062-1.4805 1.418-3.5391 2.125-6.1719 2.125-2.6484 0-4.7148-0.70703-6.2031-2.125-1.4922-1.4258-2.2344-3.3945-2.2344-5.9062 0-2.5195 0.74219-4.4883 2.2344-5.9062 1.4883-1.4258 3.5547-2.1406 6.2031-2.1406z"/>
  </symbol>
  <symbol id="q" overflow="visible">
   <path d="m16.547-12.766c0.61328-0.94531 1.3477-1.6719 2.2031-2.1719 0.85156-0.5 1.7891-0.75 2.8125-0.75 1.7578 0 3.0977 0.54688 4.0156 1.6406 0.92578 1.0859 1.3906 2.6562 1.3906 4.7188v9.3281h-4.9219v-7.9844-0.35938c0.007813-0.13281 0.015625-0.32031 0.015625-0.5625 0-1.082-0.16406-1.8633-0.48438-2.3438-0.3125-0.48828-0.82422-0.73438-1.5312-0.73438-0.92969 0-1.6484 0.38672-2.1562 1.1562-0.51172 0.76172-0.77344 1.8672-0.78125 3.3125v7.5156h-4.9219v-7.9844c0-1.6953-0.14844-2.7852-0.4375-3.2656-0.29297-0.48828-0.8125-0.73438-1.5625-0.73438-0.9375 0-1.6641 0.38672-2.1719 1.1562-0.51172 0.76172-0.76562 1.8594-0.76562 3.2969v7.5312h-4.9219v-15.312h4.9219v2.2344c0.60156-0.86328 1.2891-1.5156 2.0625-1.9531 0.78125-0.4375 1.6406-0.65625 2.5781-0.65625 1.0625 0 2 0.25781 2.8125 0.76562 0.8125 0.51172 1.4258 1.2305 1.8438 2.1562z"/>
  </symbol>
  <symbol id="p" overflow="visible">
   <path d="m17.75-9.3281v9.3281h-4.9219v-7.1094c0-1.3438-0.03125-2.2656-0.09375-2.7656s-0.16797-0.86719-0.3125-1.1094c-0.1875-0.3125-0.44922-0.55469-0.78125-0.73438-0.32422-0.17578-0.69531-0.26562-1.1094-0.26562-1.0234 0-1.8242 0.39844-2.4062 1.1875-0.58594 0.78125-0.875 1.8711-0.875 3.2656v7.5312h-4.8906v-21.281h4.8906v8.2031c0.73828-0.88281 1.5195-1.5391 2.3438-1.9688 0.83203-0.42578 1.75-0.64062 2.75-0.64062 1.7695 0 3.1133 0.54688 4.0312 1.6406 0.91406 1.0859 1.375 2.6562 1.375 4.7188z"/>
  </symbol>
  <symbol id="o" overflow="visible">
   <path d="m2.5781-20.406h5.875l7.4219 14v-14h4.9844v20.406h-5.875l-7.4219-14v14h-4.9844z"/>
  </symbol>
  <symbol id="n" overflow="visible">
   <path d="m2.5781-20.406h8.7344c2.5938 0 4.582 0.57812 5.9688 1.7344 1.3945 1.1484 2.0938 2.7891 2.0938 4.9219 0 2.1367-0.69922 3.7812-2.0938 4.9375-1.3867 1.1562-3.375 1.7344-5.9688 1.7344h-3.4844v7.0781h-5.25zm5.25 3.8125v5.7031h2.9219c1.0195 0 1.8047-0.25 2.3594-0.75 0.5625-0.5 0.84375-1.2031 0.84375-2.1094 0-0.91406-0.28125-1.6172-0.84375-2.1094-0.55469-0.48828-1.3398-0.73438-2.3594-0.73438z"/>
  </symbol>
  <symbol id="m" overflow="visible">
   <path d="m14.719-14.828v3.9844c-0.65625-0.45703-1.3242-0.79688-2-1.0156-0.66797-0.21875-1.3594-0.32812-2.0781-0.32812-1.3672 0-2.4336 0.40234-3.2031 1.2031-0.76172 0.79297-1.1406 1.9062-1.1406 3.3438 0 1.4297 0.37891 2.543 1.1406 3.3438 0.76953 0.79297 1.8359 1.1875 3.2031 1.1875 0.75781 0 1.4844-0.10938 2.1719-0.32812 0.6875-0.22656 1.3203-0.56641 1.9062-1.0156v4c-0.76172 0.28125-1.5391 0.48828-2.3281 0.625-0.78125 0.14453-1.5742 0.21875-2.375 0.21875-2.7617 0-4.9219-0.70703-6.4844-2.125-1.5547-1.4141-2.3281-3.3828-2.3281-5.9062 0-2.5312 0.77344-4.5039 2.3281-5.9219 1.5625-1.4141 3.7227-2.125 6.4844-2.125 0.80078 0 1.5938 0.074219 2.375 0.21875 0.78125 0.13672 1.5547 0.35156 2.3281 0.64062z"/>
  </symbol>
 </defs>
 <g>
  <path d="m618.8 421.68c-1.1211-12.879-7.2812-24.078-19.602-33.039-1.1211-5.6016 1.1211-14 2.2383-16.801 0.55859-1.1211 0-2.8008-0.55859-3.3594-0.55859-1.1211-2.2383-1.6797-3.3594-1.1211-1.6797 0-4.4805 0.55859-13.441 12.32-6.1602-3.3594-12.32-6.1602-17.922-7.8398-0.55859-6.7188 2.8008-14.559 2.8008-14.559 0.55859-1.1211 0-2.8008-0.55859-3.3594-0.55859-1.1211-2.2383-1.6797-3.3594-1.1211-1.1211 0-5.0391 0.55859-16.238 15.68-2.2383 0-4.4805-0.55859-6.1602-0.55859-3.9219-0.55859-7.8398-0.55859-12.32-1.1211-1.1211-8.9609 3.3594-20.719 3.3594-20.719 0.55859-1.1211 0-2.8008-0.55859-3.3594-0.55859-1.1211-2.2383-1.6797-3.3594-1.1211-3.9219 0.55859-11.199 7.2812-20.16 19.602-3.3594-1.1211-6.7188-2.8008-9.5195-5.0391 0-8.9609 6.1602-20.16 6.7188-20.16 0.55859-1.1211 0.55859-2.2383 0-3.3594-0.55859-1.1211-1.6797-1.6797-3.3594-1.6797-1.6797 0-5.0391 0-17.922 11.762-1.1211-1.1211-2.8008-2.8008-4.4805-4.4805-5.6016-5.0391-12.879-12.879-15.68-16.801-0.55859-0.55859-0.55859-0.55859-1.1211-1.1211-7.8398-14.559-25.199-28-51.52-39.762-3.3594-1.6797-7.8398-2.8008-14-4.4805 11.762-14.559 37.52-24.078 44.238-21.84 6.1602 1.6797 11.199 15.68 12.879 23.52 0 1.1211 1.1211 2.2383 2.8008 2.8008 1.1211 0.55859 2.8008 0 3.9219-1.1211 7.2812-8.3984 6.7188-18.48 5.0391-24.641 8.3984 3.3594 19.039 17.922 23.52 26.32 0 0.55859 0.55859 1.1211 1.1211 1.1211 14 10.078 5.0391 28.559 4.4805 29.68s-0.55859 2.2383 0 3.3594 1.6797 1.6797 3.3594 1.6797c4.4805 0 8.9609-1.6797 11.762-5.6016 8.9609-10.641 5.6016-34.719 5.0391-36.961-1.1211-6.7188-2.2383-26.879 3.9219-34.719 1.1211-1.6797 2.8008-2.8008 5.0391-2.8008 14-1.6797 29.121 8.9609 31.922 10.641 1.1211 2.2383 1.6797 4.4805 1.1211 6.7188-2.2383 7.2812-12.879 13.441-17.359 15.121-1.6797 0.55859-2.2383 2.2383-2.2383 3.9219 0 1.6797 1.6797 2.8008 2.8008 3.3594 11.762 2.2383 20.719 0 27.441-6.1602 12.32-11.762 8.9609-34.16 8.9609-35.281 0-0.55859 0-1.1211-0.55859-1.6797l-38.078-56.559s-0.55859-0.55859-0.55859-0.55859c-3.9336-2.2422-88.492-81.762-114.81-105.84-17.359-15.68-61.602-24.078-129.36-24.078h-1.6797-1.6797c-3.9219 0-7.2812 0-10.078 0.55859-1.6797 0-3.9219 0.55859-5.0391 0v-1.6797c0-3.3594 11.762-13.441 24.641-22.398 1.6797-1.1211 2.2383-2.8008 1.1211-4.4805-0.55859-1.6797-2.2383-2.2383-3.9219-2.2383l-26.32 5.6016h-0.55859c-9.5195 3.9219-16.801 8.9609-21.281 14h-1.6797l-19.039 7.2812c-3.3594 1.1211-31.922 9.5195-29.121 25.199 2.2383 11.199 12.879 20.719 25.199 31.359 22.961 20.16 52.078 44.801 51.52 99.68-0.55859 44.801-12.879 56.559-12.879 57.121l-0.55859 0.55859c-12.32 2.2383-23.52 0-33.039-7.2812l4.4805-12.32c0.55859-1.6797 0-2.8008-1.1211-3.9219-1.1211-1.1211-2.8008-1.1211-3.9219-0.55859l-11.199 6.1602c-1.6797-2.2383-3.3594-4.4805-5.0391-6.7188-0.55859-0.55859-0.55859-1.1211-1.1211-2.2383l10.078-8.3984c1.1211-1.1211 1.6797-2.8008 1.1211-3.9219-0.55859-1.6797-1.6797-2.2383-3.3594-2.2383h-15.121s0-0.55859-0.55859-0.55859c-1.1211-2.2383-1.1211-2.2383-1.1211-4.4805v-1.1211l14.559-6.7188c1.1211-0.55859 2.2383-2.2383 2.2383-3.3594 0-1.6797-1.1211-2.8008-2.8008-3.3594l-16.238-4.4805c0-2.2383-0.55859-3.3594-1.1211-5.0391v-0.55859l12.32-12.32c1.1211-1.1211 1.1211-2.8008 0.55859-3.9219-0.55859-1.1211-2.2383-2.2383-3.3594-2.2383l-13.441 0.55859c-1.6797-5.0391-2.8008-8.3984-4.4805-11.762 5.6016-2.8008 14-7.2812 15.68-8.3984 1.6797-1.1211 2.2383-2.8008 1.1211-4.4805-0.55859-1.6797-2.8008-2.2383-4.4805-1.6797-2.2383 0.55859-11.199 0.55859-17.922 0 5.0391-3.3594 8.3984-7.2812 8.3984-7.2812 1.1211-1.1211 1.1211-2.8008 0-3.9219-0.55859-1.1211-2.2383-1.6797-3.3594-1.6797s-2.8008 0.55859-4.4805 0.55859c-5.0391 0.55859-13.441 2.2383-18.48 1.6797 6.7188-10.078 23.52-19.602 30.238-22.398 1.6797-0.55859 2.2383-2.8008 2.2383-4.4805-0.55859-1.6797-2.2383-2.8008-3.9219-2.8008-34.719 3.3594-48.719 18.48-54.879 27.441-7.2812 2.8008-12.32 8.3984-17.359 14-4.4805 5.0391-9.5195 10.641-16.238 14.559-17.922 10.078-24.641 17.922-25.199 17.922-2.2383 2.2383-3.3594 5.6016-3.9219 8.9609-1.1211 5.6016 1.1211 11.199 5.6016 14.559 1.1211 0.55859 2.2383 1.1211 3.3594 0.55859 1.1211-0.55859 2.2383-1.1211 2.2383-2.2383v-0.55859l1.6797 1.1211c1.1211 0.55859 2.2383 1.1211 3.3594 0.55859 1.1211-0.55859 2.2383-1.6797 2.2383-2.8008l0.55859-2.2383 1.1211 0.55859c1.1211 0.55859 1.6797 0.55859 2.8008 0s1.6797-1.1211 2.2383-2.2383l4.4922-2.2461h12.32c-1.1211 1.1211-1.6797 2.8008-2.2383 3.9219h-0.55859c-1.1211-0.55859-2.2383 0-2.8008 0.55859-1.1211 0-1.6836 1.1172-2.2422 2.2383l-0.55859 2.2383h-1.6797c-1.1211 0-2.2383 0-2.8008 1.1211-0.55859 0.55859-1.1211 1.6797-1.1211 2.8008v1.6797h-2.2383c-1.1211 0-2.2383 0.55859-2.8008 1.1211-0.55859 0.55859-1.1211 1.6797-1.1211 2.8008l0.55859 5.6016c-0.55859 4.4805 1.1211 6.1602 2.2383 7.2812 3.9219 2.8008 10.641 0 13.441-1.6797h0.55859c3.3594-2.2383 6.1602-4.4805 8.9609-6.7188 11.199-8.9609 19.039-15.121 25.199-13.441 6.1602 2.2383 6.7188 13.441 6.7188 19.602v1.6797c0.55859 16.238 2.2383 24.078 4.4805 33.602l0.55859 1.6797c3.3594 15.121 11.199 25.199 20.719 36.398l0.55859 0.55859 7.2812 6.1602c-14 16.238-4.4805 48.16 0 60.48l-31.922-3.3594h-1.1211c-0.55859 0-13.441 2.2383-19.039 12.32-2.8008 5.0391-7.2812 9.5195-11.199 13.441-2.8008 2.8008-5.6016 5.6016-7.2812 7.8398-5.6016 7.8398 0 25.199 1.1211 29.121 0.55859 1.6797 2.2383 2.8008 3.9219 2.2383 1.6797 0 2.8008-1.1211 3.3594-2.8008l2.2383-12.879c1.1211-1.1211 3.3594-2.8008 5.6016-5.0391-0.55859 2.8008-0.55859 5.6016 0 7.2812 0 0.55859 0 1.1211 0.55859 2.2383 1.1211 6.7188 2.2383 16.801 8.9609 19.602 1.1211 0.55859 2.8008 0.55859 3.3594-0.55859 1.1211-0.55859 1.6797-2.2383 1.6797-3.3594l-1.1211-12.32c1.6797-1.1211 3.9219-3.3594 6.1602-6.7188 3.9219-5.6016 6.7188-12.879 7.2812-16.238l11.762-3.3594c3.3594 1.6797 12.32 5.6016 22.961 8.9609-2.2383 7.8398-6.7188 21.281-10.078 26.879-1.6797 2.8008-5.6016 6.7188-8.9609 11.199-8.9609 10.078-14 16.801-14 21.281 0 0 0 21.281 8.9609 23.52 0.55859 0 1.6797 0.55859 2.2383 1.1211 3.3594 1.6797 7.8398 3.9219 12.879 2.2383 2.8008-1.1211 5.6016-3.3594 7.2812-7.2812 0.55859-1.1211 0.55859-2.2383 0-3.3594s-1.6797-1.6797-2.8008-1.6797c0 0-6.7188-1.1211-8.3984-5.6016 3.9219-2.2383 8.9609-6.7188 11.199-10.641 1.1211 1.1211 2.2383 2.2383 2.2383 3.3594 1.6797 4.4805 2.8008 13.441 2.8008 16.238 0 3.3594 3.9219 10.078 7.8398 15.121 0.55859 1.1211 1.6797 1.6797 2.8008 1.6797h1.1211c1.6797-0.55859 2.8008-1.6797 2.8008-3.3594l1.1211-19.602c4.4805-5.6016 10.641-16.238 3.3594-26.32-4.4805-5.6016 6.7188-26.32 16.238-38.641 1.1211 0 2.2383-0.55859 3.3594-0.55859 5.6016-1.6797 9.5195-6.1602 11.762-11.762 4.4805 0 25.199-0.55859 44.238-2.2383 3.9219 8.3984 19.602 40.879 32.48 54.879 3.9219 4.4805 4.4805 9.5195 1.1211 15.68-5.0391 8.3984-14.559 14-18.48 13.441-10.078-2.2383-24.641 4.4805-29.121 6.7188-8.9609-0.55859-14.559 1.6797-17.359 6.7188-3.9219 6.7188 0.55859 14.559 0.55859 15.121 0.55859 1.1211 1.6797 1.6797 3.3594 1.6797h0.55859c1.6797 0 2.8008-1.1211 2.8008-2.8008 0-0.55859 0.55859-2.2383 1.6797-2.8008 1.1211-0.55859 2.8008 0 4.4805 1.6797 8.9609 5.6016 16.801 2.2383 20.719-1.6797l28 1.1211c-0.55859 1.1211-1.1211 2.2383-1.6797 3.3594-0.55859 1.1211-0.55859 2.8008 0 3.9219 1.1211 1.1211 2.2383 1.6797 3.9219 1.1211 0 0 10.078-2.8008 19.602-1.6797-1.1211 1.6797-2.8008 3.9219-3.9219 6.1602-7.2812 15.121-1.1211 23.52-0.55859 23.52 0.55859 0.55859 1.6797 1.1211 2.8008 1.1211h0.55859c1.1211-0.55859 2.2383-1.1211 2.8008-2.8008 1.6797-6.7188 5.6016-15.68 9.5195-15.68 4.4805 0 7.2812-2.2383 9.5195-3.9219 3.9219-2.8008 8.9609-6.7188 24.078-6.1602 0.55859 0 1.1211 0 1.6797-0.55859l8.9609-3.9219c4.4805 1.1211 20.719 5.0391 19.039 15.68 0 1.6797 0.55859 2.8008 1.6797 3.3594 1.1211 0.55859 2.8008 0.55859 3.9219 0 1.1211-0.55859 9.5195-7.2812 8.9609-15.68-0.55859-5.6016-4.4805-10.078-11.762-14-1.6797-2.2383-7.2812-7.8398-14.559-10.078 3.9219-8.9609 11.199-23.52 20.16-26.32 0.55859 0 0.55859-0.55859 1.1211-0.55859 0.55859-0.55859 14-10.078 11.199-22.398-1.1211-5.6016-5.6016-8.3984-10.078-11.199-5.6016-3.3594-10.078-7.2812-10.641-15.68-0.55859-7.8398 4.4805-12.879 11.199-17.922 8.3984 2.8008 60.48 20.719 100.24 20.719 43.121 0 48.719 11.199 53.199 30.238 1.6797 5.6016-1.1211 14.559-6.7188 25.762l-7.8398 1.6797c-10.078 2.2383-21.281 4.4805-23.52 4.4805-3.3594 0-13.441 5.6016-20.719 10.641-1.1211 0.55859-1.6797 2.2383-1.6797 3.9219 0.55859 1.6797 1.6797 2.8008 3.3594 2.8008l7.8398 1.1211-4.4805 2.8008c-5.0391 3.3594-9.5195 8.3984-12.879 13.441l-5.6016 10.078c-0.55859 1.1211-0.55859 2.8008 0.55859 3.9219 1.1211 1.1211 2.8008 1.6797 3.9219 1.1211l12.32-5.0391-15.113 23.504c-0.55859 1.6797-0.55859 3.3594 0.55859 4.4805 0.55859 0.55859 1.6797 1.1211 2.2383 1.1211 0.55859 0 1.1211 0 1.6797-0.55859 1.1211-0.55859 19.039-11.199 30.801-19.602l-3.3594 11.199c-0.55859 1.6797 0 3.3594 1.1211 3.9219 1.1211 1.1211 2.8008 1.1211 4.4805 0 1.6797-1.6797 18.48-14.559 21.281-26.32 0-0.55859 0-1.1211 0.55859-1.6797l2.8008 6.7188c0.55859 1.6797 2.2383 2.2383 3.9219 2.2383 1.6797 0 2.8008-1.1211 3.3594-2.8008 0-0.55859 3.3594-19.039 3.3594-26.879v-10.641c9.5195-10.082 28.559-31.922 26.879-57.121zm-26.879-40.879v2.8008l-1.1211-1.1211s0.55859-1.1211 1.1211-1.6797zm-32.48-15.121v3.9219l-2.2383-0.55859c0.55859-1.1211 1.1172-2.2422 2.2383-3.3633zm-36.402-12.32c-0.55859 3.3594-1.1211 6.7188-0.55859 10.078l-6.1602-1.6797c2.2383-2.7969 5.0391-6.1562 6.7188-8.3984zm-30.238-4.4805-2.8008-2.8008c1.6797-1.6797 3.3594-3.3594 5.0391-4.4805-1.1172 2.8008-1.6797 5.043-2.2383 7.2812zm-103.6-76.16c-15.121-4.4805-39.199-12.32-49.281-15.68l17.922-30.801c10.078-16.801 2.8008-48.16-8.9609-77.281 16.801 14 50.961 45.922 86.238 96.879-13.438 1.6836-35.836 11.766-45.918 26.883zm70.562-27.438h-15.121c-49.84-73.922-100.24-110.32-100.8-110.32-1.1211-2.8008-2.8008-5.6016-3.9219-8.9609 12.879 3.9219 40.879 14 57.121 29.68 16.238 16.238 51.52 66.641 67.199 89.039-2.2383 0.5625-3.3594 0.5625-4.4766 0.5625zm-1.1211 20.16c-1.6797-3.9219-3.3594-8.9609-6.1602-12.879h5.0391c1.1211 2.7969 2.2422 7.8359 1.1211 12.879zm18.48-12.883c-3.3594-4.4805-54.32-80.078-75.602-101.36-21.84-21.84-63.84-33.039-66.641-33.602-2.2383-4.4805-5.0391-8.9609-7.2812-12.879 17.359 4.4805 63.84 17.922 81.762 36.961 8.3984 8.9609 80.078 86.238 96.879 138.88l-5.6016 1.1211c-1.6797-2.2383-3.3594-4.4805-5.6016-6.1602-2.2344-3.918-9.5156-15.121-17.914-22.961zm26.32 52.641c1.1211-5.0391 1.6797-11.199 0-16.801l4.4805-0.55859c0 6.1602-1.1211 13.441-4.4805 17.359zm18.48-77.277c-3.9219 0.55859-7.2812 2.2383-10.078 5.6016-5.0391 6.7188-6.1602 17.922-6.1602 26.879-24.641-52.078-84-115.92-91.281-123.76-23.52-25.199-89.602-40.32-92.398-40.879-6.7188-10.078-12.32-16.801-15.68-19.039-3.3594-2.2383-6.7188-4.4805-9.5195-7.2812 21.84 1.6797 87.922 7.2812 109.76 23.52 25.762 19.039 119.28 108.64 141.68 141.12-7.2852-3.9219-16.805-7.2812-26.324-6.1602zm39.758 35.277c-2.2383 2.2383-5.0391 3.9219-8.3984 4.4805 3.9219-3.3594 8.3984-7.8398 10.078-12.879 0.55859-2.8008 0.55859-5.0391 0-7.8398h5.0391c-1.1172 5.5977-2.7969 11.758-6.7188 16.238zm-268.24-208.88c65.52 0 110.32 7.8398 126 21.84 25.199 22.961 105.84 98.559 111.44 103.6l37.516 55.438c0 1.1211 0 2.8008 0.55859 5.0391h-8.9609c-7.2812-23.52-120.96-132.72-148.96-153.44-27.996-20.719-117.04-25.195-120.96-25.195h-1.1211c-2.2383-2.8008-4.4805-5.0391-6.1602-7.2812 2.2383 0 5.0391-0.55859 8.3984-0.55859zm-19.043-24.641 9.5234-1.6797c-5.6016 4.4805-10.641 9.5195-12.879 14l-12.324-2.8008c3.9219-3.3594 8.9609-6.7188 15.68-9.5195zm-43.117 65.52c-11.762-10.078-21.281-18.48-22.961-27.441-1.1211-6.1602 13.441-13.441 24.078-16.801l12.32-4.4805c-1.1172 3.9219-1.1172 7.2852-0.55859 9.5234l-6.1602 1.1211c-2.2383 0.55859-3.3594 2.2383-2.8008 3.9219 0.55859 1.6797 1.6797 2.8008 3.3594 2.8008h0.55859l7.8398-1.1211c71.121 54.879 90.719 142.8 73.922 165.76-9.5195 13.441-29.121 21.281-44.238 25.762h-1.1211c4.4805-8.3984 10.078-24.641 10.078-54.32 0.5625-57.688-30.797-85.125-54.316-104.73zm-5.043 150.08m-15.68-20.723-0.55859-1.1172h1.6797zm-6.7188-21.84-0.55859-2.2383 3.3594 1.1211zm-4.4805-23.52c0-0.55859-0.55859-1.6797-0.55859-2.8008h3.3594zm-10.078-28c-0.55859-0.55859-0.55859-1.1211-1.1211-1.6797h3.9219c-1.1211 1.1211-2.2422 1.1211-2.8008 1.6797zm-10.082-12.879s0.55859 0 1.1211-0.55859c0 0.55859-0.55859 0.55859-1.1211 0.55859zm-0.55859-24.641c-6.1602 4.4805-12.32 10.078-15.68 16.238-2.8008 0-6.1602-0.55859-9.5195-0.55859 4.4805-5.0391 12.32-11.199 25.199-15.68zm35.281 329.28c6.1602 8.3984-3.3594 17.922-3.3594 17.922-0.55859 0.55859-1.1211 1.6797-1.1211 2.2383l-0.55859 8.9609v-0.55859c0-2.8008-1.1211-13.441-3.3594-19.039-1.6797-4.4805-7.2812-10.078-11.762-8.9609-2.2383 0.55859-3.9219 2.2383-3.9219 5.6016 0 1.6797-5.0391 6.1602-10.078 8.9609-1.1211 0.55859-1.6797 1.6797-1.6797 3.3594 0 6.7188 4.4805 10.641 9.5195 12.879-1.6797 0.55859-4.4805-0.55859-6.7188-1.6797-1.1211-0.55859-2.2383-1.1211-3.3594-1.6797-1.6797-1.6797-3.3594-10.078-3.3594-16.238 0-2.8008 7.8398-11.199 12.32-16.801 3.9219-4.4805 7.8398-8.9609 10.078-12.32 3.9219-6.1602 8.9609-21.281 11.199-28.559 6.7188 1.6797 14 3.3594 20.719 3.9219-8.9609 10.07-21.84 31.91-14.559 41.992zm84 43.117c-1.1211 0-2.2383 0.55859-2.8008 1.1211-0.55859 0.55859-6.1602 6.1602-12.879 1.6797-4.4805-2.8008-7.8398-3.3594-11.199-2.2383-0.55859 0-0.55859 0.55859-1.1211 0.55859 0-0.55859 0-1.1211 0.55859-1.6797 1.1211-2.2383 5.6016-3.3594 11.762-2.8008 0.55859 0 1.1211 0 1.6797-0.55859 4.4805-2.2383 17.922-7.8398 25.199-6.1602 7.8398 1.6797 20.16-6.1602 26.32-16.801 5.0391-8.9609 4.4805-17.922-1.6797-24.641-11.199-11.762-25.199-39.762-30.238-50.398 5.0391-0.55859 10.078-1.1211 14-1.6797l31.922-4.4805c-0.55859 2.2383-0.55859 4.4805-1.1211 7.2812-0.55859 7.8398 1.1211 14.559 4.4805 20.719 0 0.55859 0 1.6797 0.55859 2.2383 7.8398 14 16.238 31.359 16.238 34.719s-5.0391 11.199-8.9609 15.121l-15.68 20.16s0 0.55859-0.55859 0.55859c-4.4805 2.8008-8.3984 5.6016-11.199 8.9609zm71.117-62.719c3.3594 2.2383 6.1602 4.4805 8.9609 6.7188 7.8398 5.0391 15.121 10.078 15.121 14.559 0 2.2383-1.6797 5.0391-5.0391 8.3984-6.7188 6.1602-9.5195 10.641-11.199 14-2.8008 4.4805-3.3594 5.0391-19.602 7.2812-0.55859 0-1.1211 0-1.6797 0.55859l9.5195-11.762c1.6797-2.2383 10.641-12.32 10.641-20.16 0-3.3516-3.3633-11.191-6.7227-19.594zm46.48-19.598c0.55859 12.32 8.3984 17.359 14 21.281 3.9219 2.8008 6.1602 4.4805 6.7188 6.7188 1.1211 5.6016-5.0391 12.32-7.8398 14.559-15.121 5.6016-24.641 31.922-25.762 34.719-0.55859 1.1211 0 2.2383 0.55859 3.3594 0.55859 1.1211 1.6797 1.6797 2.8008 1.6797 7.8398 0 14.559 8.3984 14.559 8.3984 0.55859 0.55859 0.55859 0.55859 1.1211 1.1211 3.9219 1.6797 8.3984 5.0391 8.3984 8.3984 0 1.6797-0.55859 2.8008-1.1211 4.4805-5.0391-11.762-24.078-15.121-25.199-15.121h-2.2383l-8.9609 3.9219c-17.359-0.55859-23.52 3.9219-28 7.2812-2.2383 1.6797-3.3594 2.2383-5.0391 2.2383-3.9219 0-6.7188 2.2383-8.9609 5.0391 0 0 0-0.55859 0.55859-0.55859 6.1602-11.762 17.922-17.922 17.922-17.922 1.6797-1.1211 2.2383-2.8008 1.6797-5.0391-1.1211-1.6797-2.8008-2.2383-5.0391-1.6797-0.55859 0-6.1602 3.3594-11.762 8.9609-6.1602-1.6797-12.879-1.1211-18.48-0.55859 5.0391-6.7188 11.762-11.762 22.398-13.441 17.922-2.2383 20.16-3.3594 24.641-10.641 1.6797-2.8008 4.4805-6.7188 10.078-12.32 5.0391-5.0391 7.2812-9.5195 7.2812-14.559-0.55859-7.8398-8.9609-13.441-18.48-20.16-13.441-8.9609-28.559-19.039-26.879-38.078 3.3594-39.199 43.68-66.078 44.238-66.078 1.6797-1.1211 2.2383-3.3594 1.1211-5.0391-1.1211-1.6797-3.3594-2.2383-5.0391-1.1211-1.6797 1.1211-34.719 22.398-44.801 57.121l-34.719 5.0391c-17.359 2.8008-52.078 3.9219-62.16 4.4805 3.3594-16.801-1.1211-38.641-1.6797-42.559-0.55859-2.2383-2.2383-3.3594-4.4805-2.8008-2.2383 0.55859-3.3594 2.2383-2.8008 4.4805 2.8008 12.32 6.7188 49.281-7.2812 53.199-8.3984 2.2383-20.16 0-31.359-3.3594-0.55859 0-0.55859-0.55859-1.1211-0.55859h-1.1211c-13.441-4.4805-25.199-9.5195-25.762-10.078-0.55859-0.55859-1.6797-0.55859-2.8008 0l-14.559 3.9219c-1.1211 0.55859-2.2383 1.1211-2.8008 2.8008 0 0-2.2383 10.078-6.7188 15.68-2.8008 3.9219-4.4805 5.0391-5.0391 5.0391s-1.1211 0-1.1211 0.55859v-1.6797c-0.55859-2.8008 1.1211-11.199 2.2383-15.68 0.55859-1.6797 0-3.3594-1.6797-3.9219-1.6797-0.55859-3.3594-0.55859-4.4805 0.55859-6.1602 6.1602-14.559 12.879-14.559 12.879 0-2.8008 0-5.0391 1.1211-6.7188 1.6797-2.2383 3.9219-5.0391 6.7188-7.2812 4.4805-4.4805 8.9609-9.5195 12.32-15.121 3.3594-6.7188 11.762-8.3984 13.441-8.9609l51.52 5.6016c2.2383 0 3.9219-1.1211 3.9219-3.3594 0-2.2383-1.1211-3.9219-3.3594-3.9219l-11.762-1.1211c-5.6016-13.441-15.121-47.039 0-58.801 1.1211-0.55859 1.1211-1.6797 1.1211-2.8008 0-1.1211-0.55859-2.2383-1.1211-2.8008l-10.078-8.3984c-8.9609-10.078-15.68-19.602-19.039-33.039l-0.55859-1.6797c-2.2383-9.5195-3.9219-16.801-4.4805-31.922v-1.6797c0-7.8398 0-22.398-11.762-26.32-9.5195-3.3594-19.039 3.9219-31.922 14.559-2.8008 2.2383-5.6016 4.4805-8.3984 6.7188-1.6797 1.1211-3.3594 1.6797-5.0391 1.6797v-0.55859-1.1211-1.6797h1.1211c1.1211 0 2.2383 0 2.8008-1.1211 1.6836 0.003906 2.2461-1.1133 2.2461-1.6758v-1.6797h1.1211c1.6797 0 3.3594-1.1211 3.9219-2.8008v-1.1211c1.6797 0 3.3594-0.55859 3.9219-2.2383 1.1211-2.2383 3.9219-7.8398 7.2812-10.641 1.1211-1.1211 1.6797-2.8008 1.1211-3.9219-0.55859-1.6797-2.2383-2.2383-3.3594-2.2383 0 0-13.441 0.55859-22.398 0.55859-1.6797 0-2.8008 0.55859-3.3594 2.2383l-1.1211 2.8008-1.6797-1.1211c-1.1211-0.55859-2.2383-0.55859-3.3594 0s-1.6797 1.6797-2.2383 2.2383l-0.011719 1.125-1.1211-1.1211c-1.1211-0.55859-2.2383-1.1211-3.3594-0.55859-0.55859 0-1.1211 0.55859-1.6797 1.1211v-2.8008c0.55859-2.2383 1.1211-4.4805 2.2383-5.6016 0 0 6.7188-7.2812 22.961-16.238 8.3984-4.4805 13.441-10.641 18.48-16.238 5.0391-5.6016 8.9609-10.078 14.559-12.32 7.2812 0 15.121 0.55859 16.801 0.55859h0.55859c0.55859 0 0.55859 0.55859 1.1211 0.55859 3.9219 2.2383 8.3984 5.6016 9.5195 6.7188 0.55859 1.1211 2.2383 2.8008 5.0391 6.7188 1.6797 2.2383 3.9219 5.0391 4.4805 6.1602v0.55859c1.1211 2.2383 5.6016 16.238 8.9609 29.121l3.3594 21.84c0 1.6797 0.55859 2.8008 0.55859 3.3594 0.55859 3.3594 0.55859 3.9219 2.2383 6.7188 0.55859 0.55859 0.55859 1.6797 1.1211 2.2383l5.0391 10.641c1.1211 1.6797 1.6797 3.3594 2.8008 4.4805 2.2383 3.3594 4.4805 6.7188 7.8398 10.078l8.3984 7.2812c14 11.762 31.359 14.559 50.398 7.8398h0.55859c16.238-4.4805 38.641-13.441 49.84-28.559 21.281-29.121-3.9219-120.4-74.48-175.28-0.55859-1.1211-1.6797-4.4805 0-8.9609 0.55859-1.1211 1.1211-2.2383 1.6797-3.3594l16.238 3.9219c0.55859 1.1211 1.1211 2.8008 2.2383 3.9219 0.55859 0.55859 1.6797 1.1211 2.2383 1.1211 1.6797 2.2383 14 19.602 28.559 28.559 14 8.3984 68.32 108.08 49.281 140l-19.027 34.727c-0.55859 1.1211-0.55859 2.2383 0 3.3594 0.55859 1.1211 1.1211 1.6797 2.2383 2.2383 0.55859 0 37.52 12.879 56 17.922 8.3984 1.6797 14 3.3594 17.922 5.0391 30.238 13.441 47.602 28 50.961 44.238 3.9219 15.68-6.7188 29.121-12.32 35.281-2.8008 3.9219-7.2812 6.7188-12.32 10.641-8.957 5.6016-19.598 13.441-19.039 27.441zm169.12 85.117c0 2.8008-0.55859 7.8398-1.1211 12.879l-1.6797-3.9219c-0.55859-1.6797-2.2383-2.2383-3.3594-2.2383-1.6797 0-2.8008 1.1211-3.3594 2.2383 0 0.55859-2.2383 6.7188-3.3594 12.32-1.1211 4.4805-5.0391 9.5195-8.9609 13.441l2.8008-9.5195c0.55859-1.6797 0-3.3594-1.6797-3.9219-1.6797-1.1211-3.3594-0.55859-4.4805 0.55859-3.3594 3.3594-16.801 11.762-26.879 18.48l12.32-21.84c0.55859-1.1211 0.55859-2.8008-0.55859-3.9219-1.1211-1.1211-2.8008-1.6797-3.9219-1.1211l-12.32 5.0391 0.55859-1.1211c2.2383-4.4805 6.1602-8.3984 10.078-11.199l12.32-8.3984c1.1211-1.1211 1.6797-2.2383 1.6797-3.9219-0.55859-1.6797-1.6797-2.8008-3.3594-2.8008l-7.2812-1.1211c3.9219-2.2383 6.7188-3.9219 7.8398-3.9219 3.3594 0 21.281-3.9219 25.199-4.4805l5.6016-1.1211c0 0.55859 0.55859 1.6797 1.1211 2.2383 1.1211 1.6797 2.2383 2.8008 3.9219 3.3594-0.55859 0.55859-0.55859 1.1211-0.55859 2.2383l-0.003906 11.777zm6.1602-20.16c-1.6797 0-2.8008-0.55859-3.3594-1.6797-0.55859-0.55859 0-1.1211 0-1.6797 7.2812-13.441 10.078-24.078 7.8398-31.922-6.1602-24.078-16.801-35.84-60.48-35.84-33.602 0-77.84-13.441-93.52-19.039 4.4805-3.3594 8.3984-6.7188 11.762-10.641 5.0391-6.1602 15.121-19.039 14.559-35.281 2.2383 2.8008 5.0391 5.0391 7.2812 7.2812 2.8008 2.8008 5.6016 5.6016 6.7188 6.7188l11.199 10.641c4.4805 3.3594 8.9609 5.0391 14.559 7.2812l1.1211 0.55859 16.801 4.4805c5.6016 1.1211 10.641 1.6797 15.68 1.6797 2.8008 0 5.6016 0.55859 7.8398 0.55859l12.32 2.2383c6.7188 1.6797 13.441 5.0391 21.281 9.5195l10.641 6.7188c10.641 7.8398 16.801 17.359 17.359 28.559 2.2383 17.93-5.6016 34.73-19.602 49.848z"/>
  <path d="m139.44 154.56c-5.6016 1.6797-7.2812 7.2812-7.2812 7.2812 0 0.55859 0 1.6797 1.1211 1.6797 2.2383 1.1211 3.9219 1.1211 6.1602 1.1211 7.2812 0 10.641-6.7188 10.641-6.7188 0-0.55859 0-1.1211-0.55859-1.6797-0.003907-0.003907-4.4844-2.8008-10.082-1.6836z"/>
  <use x="70" y="644" xlink:href="#v"/>
  <use x="90.550781" y="644" xlink:href="#b"/>
  <use x="104.359375" y="644" xlink:href="#a"/>
  <use x="123.347656" y="644" xlink:href="#e"/>
  <use x="142.242188" y="644" xlink:href="#c"/>
  <use x="155.628906" y="644" xlink:href="#a"/>
  <use x="174.617188" y="644" xlink:href="#l"/>
  <use x="204.410156" y="644" xlink:href="#k"/>
  <use x="224.453125" y="644" xlink:href="#j"/>
  <use x="252.453125" y="644" xlink:href="#i"/>
  <use x="272.492188" y="644" xlink:href="#e"/>
  <use x="291.390625" y="644" xlink:href="#b"/>
  <use x="305.195312" y="644" xlink:href="#u"/>
  <use x="323.820312" y="644" xlink:href="#h"/>
  <use x="333.414062" y="644" xlink:href="#t"/>
  <use x="343.015625" y="644" xlink:href="#s"/>
  <use x="359.679688" y="644" xlink:href="#g"/>
  <use x="379.613281" y="644" xlink:href="#f"/>
  <use x="70" y="672" xlink:href="#r"/>
  <use x="82.183594" y="672" xlink:href="#b"/>
  <use x="95.992188" y="672" xlink:href="#d"/>
  <use x="115.226562" y="672" xlink:href="#q"/>
  <use x="154.152344" y="672" xlink:href="#c"/>
  <use x="167.535156" y="672" xlink:href="#p"/>
  <use x="187.46875" y="672" xlink:href="#a"/>
  <use x="216.207031" y="672" xlink:href="#o"/>
  <use x="239.640625" y="672" xlink:href="#d"/>
  <use x="258.878906" y="672" xlink:href="#g"/>
  <use x="278.8125" y="672" xlink:href="#f"/>
  <use x="308.492188" y="672" xlink:href="#n"/>
  <use x="329.015625" y="672" xlink:href="#b"/>
  <use x="342.820312" y="672" xlink:href="#d"/>
  <use x="362.058594" y="672" xlink:href="#h"/>
  <use x="371.65625" y="672" xlink:href="#a"/>
  <use x="390.648438" y="672" xlink:href="#m"/>
  <use x="407.242188" y="672" xlink:href="#c"/>
 </g>
</svg>
